HIERARCHY
ROOT Hips
{
  OFFSET 45.6458 95.8672 38.238
  CHANNELS 6 Xposition Yposition Zposition Zrotation Xrotation Yrotation
  JOINT spine
  {
    OFFSET 0 7.96568 0.458067
    CHANNELS 3 Zrotation Xrotation Yrotation
    JOINT spine1
    {
      OFFSET 0 10.2431 0
      CHANNELS 3 Zrotation Xrotation Yrotation
      JOINT spine2
      {
        OFFSET 0 9.81475 0
        CHANNELS 3 Zrotation Xrotation Yrotation
        JOINT Neck
        {
          OFFSET 0 25.1986 1.20138
          CHANNELS 3 Zrotation Xrotation Yrotation
          JOINT Head
          {
            OFFSET 0 7.61315 0
            CHANNELS 3 Zrotation Xrotation Yrotation
            End Site
            {
              OFFSET 0 18.4281 -6.07733
            }
          }
        }
        JOINT RightShoulder
        {
          OFFSET -4.1327 10.5992 -0.575451
          CHANNELS 3 Zrotation Xrotation Yrotation
          JOINT RightArm
          {
            OFFSET 0 13.9018 0
            CHANNELS 3 Zrotation Xrotation Yrotation
            JOINT RightArmRoll
            {
              OFFSET 0 7.01789 0
              CHANNELS 3 Zrotation Xrotation Yrotation
              JOINT RightForeArm
              {
                OFFSET 0 20.4406 0
                CHANNELS 3 Zrotation Xrotation Yrotation
                JOINT RightForeArmRoll
                {
                  OFFSET 0 7.87515 0
                  CHANNELS 3 Zrotation Xrotation Yrotation
                  JOINT RightHand
                  {
                    OFFSET 0 15.8037 0
                    CHANNELS 3 Zrotation Xrotation Yrotation
                    End Site
                    {
                      OFFSET 0 0 0
                    }
                  }
                }
              }
            }
          }
        }
        JOINT LeftShoulder
        {
          OFFSET 4.1327 10.5992 -0.575451
          CHANNELS 3 Zrotation Xrotation Yrotation
          JOINT LeftArm
          {
            OFFSET 0 13.9018 0
            CHANNELS 3 Zrotation Xrotation Yrotation
            JOINT LeftArmRoll
            {
              OFFSET 0 7.01789 0
              CHANNELS 3 Zrotation Xrotation Yrotation
              JOINT LeftForeArm
              {
                OFFSET 0 20.4406 0
                CHANNELS 3 Zrotation Xrotation Yrotation
                JOINT LeftForeArmRoll
                {
                  OFFSET 0 7.87516 0
                  CHANNELS 3 Zrotation Xrotation Yrotation
                  JOINT LeftHand
                  {
                    OFFSET 0 15.8037 0
                    CHANNELS 3 Zrotation Xrotation Yrotation
                    End Site
                    {
                      OFFSET 0 0 0
                    }
                  }
                }
              }
            }
          }
        }
      }
    }
  }
  JOINT RightUpLeg
  {
    OFFSET -7.06048 -1.2947 -1.0861
    CHANNELS 3 Zrotation Xrotation Yrotation
    JOINT RightUpLegRoll
    {
      OFFSET 0 18.5308 0
      CHANNELS 3 Zrotation Xrotation Yrotation
      JOINT RightLeg
      {
        OFFSET 0 -22.9476 0
        CHANNELS 3 Zrotation Xrotation Yrotation
        JOINT RightLegRoll
        {
          OFFSET 0 23.0226 0
          CHANNELS 3 Zrotation Xrotation Yrotation
          JOINT RightFoot
          {
            OFFSET 0 19.1625 0
            CHANNELS 3 Zrotation Xrotation Yrotation
            JOINT RightToeBase
            {
              OFFSET 0 16.0188 0
              CHANNELS 3 Zrotation Xrotation Yrotation
              End Site
              {
                OFFSET 0.00678979 7.75782 -0.894206
              }
            }
          }
        }
      }
    }
  }
  JOINT LeftUpLeg
  {
    OFFSET 7.06048 -1.2947 -1.0861
    CHANNELS 3 Zrotation Xrotation Yrotation
    JOINT LeftUpLegRoll
    {
      OFFSET 0 18.5309 0
      CHANNELS 3 Zrotation Xrotation Yrotation
      JOINT LeftLeg
      {
        OFFSET 0 22.9475 0
        CHANNELS 3 Zrotation Xrotation Yrotation
        JOINT LeftLegRoll
        {
          OFFSET 0 23.2355 0
          CHANNELS 3 Zrotation Xrotation Yrotation
          JOINT LeftFoot
          {
            OFFSET 0 18.9496 0
            CHANNELS 3 Zrotation Xrotation Yrotation
            JOINT LeftToeBase
            {
              OFFSET 0 16.0188 0
              CHANNELS 3 Zrotation Xrotation Yrotation
              End Site
              {
                OFFSET -0.0304289 7.75782 -0.894206
              }
            }
          }
        }
      }
    }
  }
}
MOTION
Frames: 9
Frame Time: 0.00208333
50.5917 77.498 20.2843 1.35642 4.57487 -5.6931 0.124643 -2.06251 0.274905 0.256221 -0.121636 0.53803 0.249851 1.52337 0.533873 -16.9376 20.3405 4.97651 13.3961 -9.76745 1.89703 5.05282 -10.4428 -6.68297 25.4019 32.3167 90.9327 -6.54983e-006 -2.31342e-006 -3.95185e-006 -24.8558 66.5684 34.8743 -4.40458e-006 1.12148e-006 -3.00166 8.03002 -4.95137 0.697648 -24.6813 -11.9875 8.37846 -5.10325 27.7726 -85.2424 -3.18055e-015 5.96354e-015 4.77083e-015 27.1962 66.4265 -33.3534 1.11506e-005 -4.69702e-007 3.00698 -8.03018 -4.95137 -0.697637 134.744 24.1326 27.6664 180 7.01669e-015 179.881 -179.919 48.6761 176.949 -5.37674e-007 -3.05182e-006 -0.677683 -11.0125 75.2566 24.9548 8.16066 25.6125 -3.04671 -149.104 27.9019 -13.8257 4.54188e-006 -4.67727e-006 -0.544491 15.1082 -55.5331 10.0492 -4.23467e-006 -4.46812e-006 -3.10408 44.5644 84.6447 -58.7792 -8.17778 25.8926 2.76777 
50.528 77.6399 20.3284 1.18821 4.53022 -5.68536 0.158286 -2.06215 0.278765 0.323527 -0.120773 0.542585 0.317124 1.52423 0.537303 -16.9195 20.3059 4.94924 13.4165 -9.64973 1.87208 5.23835 -10.4643 -6.72027 25.4214 32.3166 90.6373 -6.54983e-006 -2.31342e-006 -3.95185e-006 -24.663 65.9819 34.4493 -4.40458e-006 1.12148e-006 -3.00166 8.03002 -4.95137 0.697648 -24.988 -12.0139 8.39831 -5.18148 27.9337 -85.1031 9.54166e-015 3.97569e-016 -7.95139e-015 27.0391 66.3644 -33.1331 1.11506e-005 -4.69702e-007 3.00698 -8.03018 -4.95137 -0.697637 135.047 23.9806 27.4976 180 7.01669e-015 179.877 179.916 48.6001 177.061 -5.37674e-007 -3.05182e-006 -0.648026 -11.2621 75.3516 25.0971 8.16049 25.6108 -3.04835 -148.965 27.729 -13.8723 4.54188e-006 -4.67727e-006 -0.552097 15.1185 -55.3548 10.0133 -4.23467e-006 -4.46812e-006 -3.11153 43.9614 84.5707 -58.0829 -8.17778 25.8918 2.76961 
50.4903 77.6366 20.3681 1.02458 4.48465 -5.67737 0.18968 -2.06131 0.281771 0.386315 -0.118938 0.545645 0.379894 1.52606 0.539312 -16.8738 20.2495 4.91622 13.4167 -9.50688 1.84662 5.44801 -10.4935 -6.7672 25.435 32.3319 90.3547 -6.54983e-006 -2.31342e-006 -3.95185e-006 -24.4741 65.3889 34.0233 -4.40458e-006 1.12148e-006 -3.00166 8.03002 -4.95137 0.697648 -25.2823 -12.0498 8.42876 -5.27349 28.1066 -84.9623 1.90833e-014 3.18055e-015 -1.43125e-014 26.8812 66.3003 -32.9119 1.11506e-005 -4.69702e-007 3.00698 -8.03018 -4.95137 -0.697637 135.362 23.8212 27.3159 180 7.01669e-015 179.87 179.752 48.5006 177.176 -5.37674e-007 -3.05183e-006 -0.613885 -11.5381 75.4398 25.2398 8.1603 25.6087 -3.05059 -148.841 27.5437 -13.9118 4.54188e-006 -4.67727e-006 -0.561958 15.1052 -55.1501 9.9554 -4.23467e-006 -4.46813e-006 -3.12159 43.3471 84.4864 -57.3464 -8.17771 25.8899 2.77264 
50.4614 77.7959 20.3664 0.868563 4.43894 -5.67013 0.217965 -2.05987 0.283695 0.442858 -0.115948 0.546831 0.436441 1.52905 0.539552 -16.7962 20.1651 4.87696 13.3935 -9.33564 1.82135 5.6838 -10.5313 -6.82457 25.4438 32.3672 90.0905 -6.54983e-006 -2.31342e-006 -3.95185e-006 -24.2884 64.7938 33.5961 -4.40458e-006 1.12148e-006 -3.00167 8.03002 -4.95137 0.697648 -25.5593 -12.0977 8.47275 -5.38191 28.2907 -84.8207 2.22639e-014 7.95139e-016 -9.54166e-015 26.7248 66.2355 -32.6935 1.11506e-005 -4.69702e-007 3.00698 -8.03018 -4.95137 -0.697637 135.687 23.6568 27.1237 180 7.01669e-015 179.861 179.594 48.3765 177.292 -5.37674e-007 -3.05184e-006 -0.57554 -11.837 75.5181 25.379 8.16007 25.6061 -3.05345 -148.733 27.3479 -13.944 4.54188e-006 -4.67728e-006 -0.574076 15.0664 -54.9211 9.87486 -4.23467e-006 -4.46813e-006 -3.1343 42.7392 84.3927 -56.5871 -8.17757 25.8869 2.77691 
50.4223 77.8256 20.4241 0.723207 4.39387 -5.66462 0.242281 -2.05776 0.284306 0.491432 -0.111619 0.545766 0.485043 1.53338 0.537675 -16.6823 20.047 4.83096 13.3438 -9.13273 1.79698 5.94771 -10.5785 -6.89318 25.4491 32.427 89.8503 -6.54983e-006 -2.31342e-006 -3.95185e-006 -24.1043 64.2013 33.1674 -4.40458e-006 1.12148e-006 -3.00167 8.03002 -4.95137 0.697648 -25.8137 -12.16 8.53326 -5.50939 28.4859 -84.6785 -3.53113e-031 6.36111e-015 3.18055e-015 26.5725 66.1714 -32.4815 1.11506e-005 -4.69702e-007 3.00698 -8.03018 -4.95137 -0.697637 136.016 23.4895 26.9232 180 7.01668e-015 179.849 179.444 48.2265 177.407 -5.37674e-007 -3.05185e-006 -0.533266 -12.1551 75.5837 25.5107 8.15981 25.6029 -3.05699 -148.646 27.1437 -13.9685 4.54188e-006 -4.67728e-006 -0.588451 15.0002 -54.6698 9.77118 -4.23467e-006 -4.46814e-006 -3.1497 42.1541 84.2906 -55.8213 -8.17736 25.8828 2.7825 
50.3789 78.0466 20.5188 0.591543 4.35021 -5.6618 0.261767 -2.05488 0.283376 0.530312 -0.105766 0.542074 0.52398 1.53923 0.533331 -16.5279 19.8891 4.77779 13.2644 -8.8949 1.7742 6.24169 -10.636 -6.97386 25.4521 32.5161 89.6397 -6.54983e-006 -2.31342e-006 -3.95185e-006 -23.9205 63.6157 32.7362 -4.40458e-006 1.12148e-006 -3.00167 8.03002 -4.95137 0.697648 -26.0405 -12.239 8.61326 -5.65851 28.6916 -84.5364 6.36111e-015 0 -1.59028e-015 26.4266 66.1095 -32.2793 1.11506e-005 -4.69702e-007 3.00698 -8.03018 -4.95137 -0.697637 136.344 23.3217 26.7165 180 7.01668e-015 179.834 179.304 48.0496 177.519 -5.37674e-007 -3.05187e-006 -0.487341 -12.4886 75.6334 25.6305 8.15952 25.5993 -3.06125 -148.58 26.9328 -13.985 4.54188e-006 -4.67729e-006 -0.605083 14.9049 -54.3983 9.64392 -4.23467e-006 -4.46814e-006 -3.16785 41.6064 84.1811 -55.0633 -8.17706 25.8773 2.78947 
50.3388 78.0879 20.5467 0.476602 4.30875 -5.66267 0.275564 -2.05113 0.280675 0.557775 -0.0982072 0.535377 0.551533 1.54679 0.526174 -16.3288 19.6854 4.71701 13.1521 -8.61885 1.75373 6.5677 -10.7046 -7.0674 25.454 32.6394 89.4644 -6.54983e-006 -2.31342e-006 -3.95185e-006 -23.735 63.0416 32.3013 -4.40458e-006 1.12148e-006 -3.00167 8.03002 -4.95137 0.697648 -26.2344 -12.3373 8.71573 -5.83195 28.9077 -84.3947 6.36111e-015 1.43125e-014 -1.59028e-015 26.2893 66.0513 -32.0903 1.11506e-005 -4.69702e-007 3.00698 -8.03018 -4.95137 -0.697637 136.669 23.1556 26.5058 180 7.01667e-015 179.815 179.179 47.8447 177.625 -5.37675e-007 -3.05189e-006 -0.438042 -12.8336 75.6642 25.734 8.15918 25.5951 -3.06627 -148.539 26.7172 -13.9931 4.54188e-006 -4.67729e-006 -0.623974 14.7787 -54.1084 9.49267 -4.23466e-006 -4.46815e-006 -3.18878 41.1094 84.0653 -54.326 -8.17668 25.8706 2.79787 
50.2997 78.3269 20.6371 0.381414 4.27024 -5.66819 0.282812 -2.04642 0.275975 0.572096 -0.0887583 0.525298 0.565981 1.55624 0.515853 -16.0808 19.43 4.64823 13.0036 -8.30134 1.73626 6.92766 -10.7852 -7.17464 25.4558 32.8016 89.3303 -6.54983e-006 -2.31342e-006 -3.95185e-006 -23.5459 62.4834 31.8613 -4.40458e-006 1.12148e-006 -3.00167 8.03002 -4.95137 0.697648 -26.3902 -12.4572 8.8437 -6.03225 29.1338 -84.2541 -6.36111e-015 -3.97569e-015 1.59028e-015 26.163 65.9983 -31.9177 1.11506e-005 -4.69702e-007 3.00698 -8.03018 -4.95137 -0.697637 136.984 22.9935 26.2933 180 7.01666e-015 179.793 179.071 47.6108 177.726 -5.37675e-007 -3.05192e-006 -0.385645 -13.1861 75.6731 25.817 8.15881 25.5903 -3.07208 -148.526 26.4989 -13.9927 4.54188e-006 -4.6773e-006 -0.645123 14.6201 -53.8021 9.31706 -4.23466e-006 -4.46816e-006 -3.21256 40.6746 83.9446 -53.6209 -8.17621 25.8624 2.80776 
50.2547 78.3954 20.6773 0.303246 4.23486 -5.67823 0.283527 -2.0407 0.268676 0.573293 -0.0773104 0.510633 0.567356 1.56769 0.501166 -15.7674 19.104 4.56767 12.8063 -7.91907 1.72073 7.33084 -10.8847 -7.30591 25.4383 33.0109 89.2526 -6.54983e-006 -2.31342e-006 -3.95185e-006 -23.35 61.9128 31.4017 -4.40458e-006 1.12148e-006 -3.00167 8.03002 -4.95137 0.697648 -26.4984 -12.6077 9.00794 -6.26504 29.3818 -84.123 2.54444e-014 -1.27222e-014 -1.74931e-014 26.0565 65.954 -31.772 1.11506e-005 -4.69702e-007 3.00698 -8.03018 -4.95137 -0.697637 137.302 22.8334 26.072 180 7.01665e-015 179.766 178.976 47.3479 177.825 -5.37675e-007 -3.05195e-006 -0.324097 -13.589 75.6716 25.9047 8.15839 25.5849 -3.0788 -148.54 26.2717 -13.9835 4.54188e-006 -4.67731e-006 -0.670195 14.4259 -53.4729 9.10732 -4.23466e-006 -4.46817e-006 -3.24757 40.4279 83.8226 -53.0546 -8.1754 25.8476 2.82462 
